# xmcd
#
# Track frame offsets:
#   150
#   19653
#   34526
#   52758
#   68156
#   81784
#   98427
#   117245
#   136448
#   152946
#   169089
#   184535
#
# Disc length: 2835 seconds
#
# Revision: 0
# Processed by: cddbd v1.5.2PL0 Copyright (c) Steve Scherf et al.
# Submitted via: GXTranscoder 2.0.1939
#
DISCID=8b0b110c
DTITLE=abc - abcd
DYEAR=1900
DGENRE=Country
TTITLE0=1
TTITLE1=3
TTITLE2=33
TTITLE3=333
TTITLE4=3333
TTITLE5=33333
TTITLE6=45444
TTITLE7=5555
TTITLE8=6666
TTITLE9=66777
TTITLE10=77878
TTITLE11=4343
EXTD=
EXTT0=
EXTT1=
EXTT2=
EXTT3=
EXTT4=
EXTT5=
EXTT6=
EXTT7=
EXTT8=
EXTT9=
EXTT10=
EXTT11=
PLAYORDER=
